PathFileType	4	(X/Y/Z)	s06c0203.trc
DataRate	CameraRate	NumFrames	NumMarkers	Units	OrigDataRate	OrigDataStartFrame	OrigNumFrames
200	200	4	48	mm	200	1000	2000
Frame#	Time	racr			lacr			c7			jug			rlel			rdr			llel			ldr			s2			lic			ric			lasi			rasi			rpsi			lpsi			rgt			lgt			rth1			rth2			rth3			rth4			rlfc			rmfc			rsh1			rsh2			rsh3			rsh4			rlmal			rcal			rtoe			rmt5			lth1			lth2			lth4			lth3			llfc			lmfc			llmal			lcal			lmt5			lsh1			lsh2			lsh3			lsh4			ltoe			SBIKE			LBIKE			RBIKE			
		X1	Y1	Z1	X2	Y2	Z2	X3	Y3	Z3	X4	Y4	Z4	X5	Y5	Z5	X6	Y6	Z6	X7	Y7	Z7	X8	Y8	Z8	X9	Y9	Z9	X10	Y10	Z10	X11	Y11	Z11	X12	Y12	Z12	X13	Y13	Z13	X14	Y14	Z14	X15	Y15	Z15	X16	Y16	Z16	X17	Y17	Z17	X18	Y18	Z18	X19	Y19	Z19	X20	Y20	Z20	X21	Y21	Z21	X22	Y22	Z22	X23	Y23	Z23	X24	Y24	Z24	X25	Y25	Z25	X26	Y26	Z26	X27	Y27	Z27	X28	Y28	Z28	X29	Y29	Z29	X30	Y30	Z30	X31	Y31	Z31	X32	Y32	Z32	X33	Y33	Z33	X34	Y34	Z34	X35	Y35	Z35	X36	Y36	Z36	X37	Y37	Z37	X38	Y38	Z38	X39	Y39	Z39	X40	Y40	Z40	X41	Y41	Z41	X42	Y42	Z42	X43	Y43	Z43	X44	Y44	Z44	X45	Y45	Z45	X46	Y46	Z46	X47	Y47	Z47	X48	Y48	Z48	
1000	5.0000	576.496776	1247.202972	-89.057900	580.715752	1227.880590	-410.999734	571.001350	1339.713233	-250.022025	554.008036	1173.331284	-243.393973	504.471966	1023.818162	59.395762	662.872552	915.754590	-57.292469	470.908844	991.537154	-516.076421	652.504033	916.441225	-407.144763	22.340649	1141.582858	-221.828524	171.862326	1102.943291	-396.001253	169.921042	1109.591989	-62.868275	192.015314	1051.504789	-353.567375	195.509282	1072.355554	-101.869218	54.793897	1177.881042	-190.267582	53.983566	1175.292178	-250.418415	143.011061	1039.906711	-18.199010	142.253916	1022.851985	-414.247788	243.478923	963.300321	-18.706431	324.523202	921.469148	-25.846422	371.228223	849.075483	-26.706852	344.594268	947.648290	-44.510954	409.371921	753.663303	-50.511064	389.257419	735.907478	-160.900793	317.276263	671.361814	-28.941696	256.580324	613.809971	-52.291274	172.519934	585.986545	-52.861608	267.720937	601.034876	-88.564262	96.339323	557.391456	-55.661585	35.074909	587.081052	-104.362002	175.744053	348.908593	-94.963419	104.924289	420.342875	-28.284666	185.170641	896.959287	-427.223135	246.548916	836.268490	-416.915030	277.256122	854.832128	-406.596435	269.767645	749.703255	-405.946757	302.605800	634.469763	-386.436121	300.241785	616.690884	-274.466235	219.812609	266.544093	-378.013928	150.917963	223.115492	-329.765620	347.996083	229.256038	-403.510394	282.599299	525.987380	-408.302914	282.921440	441.305568	-387.903888	242.915906	362.493320	-388.704600	306.757496	440.425277	-356.369152	429.666592	256.824992	-344.309620	-203.746934	864.646729	-212.264998	-50.909641	79.971146	-411.456368	-50.902827	80.280242	-14.161150	
1001	5.0050	575.797329	1247.442648	-87.950048	581.231549	1229.156533	-409.307802	571.842188	1340.477508	-247.970042	553.642831	1174.287145	-241.855500	504.270172	1024.070809	59.797270	663.114777	916.839011	-56.949334	471.970082	993.579839	-515.611720	653.138774	916.935705	-407.344012	22.566112	1143.001778	-224.124699	172.679391	1103.966408	-396.376661	168.398413	1112.112629	-63.779552	193.650195	1052.182650	-355.087425	193.939873	1074.098541	-102.065029	54.799800	1179.079225	-192.554554	54.795551	1176.416739	-252.896838	142.201410	1045.080747	-18.887018	142.808917	1021.054101	-415.074772	243.799963	969.379684	-19.097478	325.921678	929.475653	-26.070829	374.391729	858.486690	-26.604059	345.475643	956.200515	-44.652542	415.423790	763.265172	-50.941694	396.153464	746.121931	-161.125036	323.387472	680.492156	-29.343949	262.568445	622.830077	-52.706863	178.608196	595.134026	-53.138320	273.839471	610.132857	-88.859942	102.444279	566.397009	-56.010230	40.654811	595.593807	-104.811964	182.927897	358.473090	-95.152135	111.302777	429.654752	-28.536247	182.536476	894.847848	-427.868218	241.974178	832.180072	-417.799779	273.190676	849.741167	-407.352333	262.039181	745.121306	-407.243310	292.461376	628.638739	-387.871193	288.520904	610.124424	-275.491812	213.637327	259.635032	-378.679536	144.325658	217.501118	-331.383782	342.002188	220.654896	-403.300412	273.659892	519.735425	-409.798380	274.644170	435.225854	-388.933727	235.407964	356.020738	-389.729637	298.524731	434.473462	-357.307092	423.749818	247.090842	-343.731833	-203.769317	864.714823	-212.343289	-50.912971	79.989649	-411.457839	-50.897065	80.024165	-14.517162	
1002	5.0100	575.281422	1247.624683	-86.147790	581.771735	1230.305858	-407.568368	572.468755	1341.120489	-245.824726	553.358357	1174.941473	-240.154252	503.904325	1024.328184	60.372748	663.375038	918.037600	-56.539532	472.920252	995.765022	-515.142637	653.818443	917.341538	-407.273240	21.807981	1145.288042	-225.175470	173.402266	1104.720576	-396.400147	166.886186	1114.440984	-64.667981	195.120583	1052.576291	-356.256940	192.634820	1075.838530	-102.229881	55.188894	1180.351949	-195.276974	55.561679	1177.347146	-255.305767	141.709903	1050.154149	-20.023472	143.315377	1019.436470	-415.741741	244.228373	975.307698	-20.728380	327.181219	937.834953	-25.844136	377.677113	867.980444	-25.928230	346.113950	964.654732	-44.849613	421.315209	773.050266	-51.385329	402.646720	756.046089	-161.927110	329.543731	689.699893	-29.720484	268.902422	632.066549	-52.964306	184.923343	604.092988	-53.451101	280.742398	618.649258	-89.451002	108.798233	575.041003	-56.420743	46.610711	603.778893	-105.214631	190.586819	367.750457	-95.415795	118.521164	438.411920	-28.932654	180.091901	892.763160	-428.676149	237.476554	828.165285	-418.777193	269.230362	844.682869	-408.176912	254.767302	740.474777	-408.679811	282.461184	623.469318	-389.365075	276.929977	604.252702	-276.539055	207.011627	253.477190	-379.266087	137.634155	212.442545	-332.026299	335.618481	212.425926	-403.201815	264.548389	514.173659	-411.325117	266.140365	429.860911	-390.199143	227.426771	350.412981	-390.809756	290.115348	429.310709	-358.663153	417.552003	237.569092	-343.315890	-203.788345	864.767160	-212.416214	-50.930937	80.013837	-411.481293	-50.910811	80.071452	-14.517973	
1003	5.0150	574.542882	1247.642974	-84.426477	582.300039	1231.337402	-405.814530	572.843651	1341.589098	-243.647209	552.990545	1175.633712	-238.230492	503.545165	1024.530759	61.025263	663.602900	919.367254	-56.114759	473.898288	997.828446	-514.489178	654.363030	917.592161	-407.195873	23.238159	1146.227903	-227.528031	174.257582	1105.166386	-396.158483	165.433026	1116.802188	-65.504536	197.118879	1053.308582	-358.120505	191.475232	1077.666438	-102.315757	55.707545	1181.618965	-198.122976	56.315013	1178.089486	-257.634201	140.899878	1054.652259	-20.954639	143.853656	1017.942224	-416.329289	244.457715	981.058176	-20.811819	328.312728	945.707310	-25.947406	380.703538	877.172001	-26.026706	346.472785	972.964857	-45.267222	427.143907	783.067261	-51.566294	409.026560	765.934694	-162.694376	335.702764	698.912995	-30.173701	275.283261	640.882077	-53.359586	191.547871	612.614358	-53.722660	287.199000	627.514087	-89.727540	115.202841	583.315902	-56.775856	52.814241	611.440080	-105.494102	198.753241	376.703895	-95.782417	126.202169	446.820872	-29.165316	177.726245	890.680965	-429.713237	233.045302	824.357098	-419.989372	265.248522	839.730263	-409.067096	247.555200	736.111022	-410.141889	272.841823	618.823394	-390.966812	265.960587	599.574946	-277.523332	200.035741	248.096238	-379.822221	130.627067	208.222725	-332.647371	328.827832	204.731674	-403.009425	255.472693	509.497435	-412.815562	257.514189	425.185999	-391.635725	219.189052	345.610694	-392.055859	281.674342	424.776792	-360.216635	410.992555	228.365712	-342.840336	-203.779819	864.841188	-212.537360	-50.954330	80.036637	-411.506276	-50.950343	80.458456	-14.211959	
